<svg width="18" height="18" viewBox="0 0 18 18" fill="none" xmlns="http://www.w3.org/2000/svg">
<path d="M1.04357 3.54869H16.9564C17.5331 3.54869 18 3.07316 18 2.48495C18 1.89822 17.5331 1.42096 16.9564 1.42096H1.04357C0.466925 1.42096 0 1.89822 0 2.48495C0 3.0734 0.466925 3.54869 1.04357 3.54869ZM16.9564 7.93602H1.04357C0.466925 7.93602 0 8.41352 0 9.00001C0 9.58871 0.466925 10.064 1.04357 10.064H16.9564C17.5331 10.064 18 9.58846 18 9.00001C18 8.41352 17.5331 7.93602 16.9564 7.93602ZM16.9564 14.4511H1.04357C0.466925 14.4511 0 14.9286 0 15.5151C0 16.1038 0.466925 16.5791 1.04357 16.5791H16.9564C17.5331 16.5791 18 16.103 18 15.5151C18 14.9286 17.5331 14.4511 16.9564 14.4511Z" fill="#FF9701"/>
</svg>
